<?xml version="1.0" standalone="no"?><!DOCTYPE svg PUBLIC "-//W3C//DTD SVG 1.1//EN" "http://www.w3.org/Graphics/SVG/1.1/DTD/svg11.dtd"><svg t="1680664158320" class="icon" viewBox="0 0 1024 1024" version="1.1" xmlns="http://www.w3.org/2000/svg" p-id="2955" xmlns:xlink="http://www.w3.org/1999/xlink" width="200" height="200"><path d="M716.4 1023 307.6 1023c-56.443 0-102.2-45.757-102.2-102.2L205.4 103.2C205.4 46.757 251.157 1 307.6 1l408.8 0c56.443 0 102.2 45.757 102.2 102.2l0 817.6C818.6 977.243 772.843 1023 716.4 1023zM443.867 980.417c0 4.703 3.814 8.517 8.517 8.517l119.233 0c4.703 0 8.517-3.814 8.517-8.517L580.134 946.35c0-4.703-3.814-8.517-8.517-8.517L452.383 937.833c-4.703 0-8.517 3.814-8.517 8.517L443.866 980.417zM767.5 120.233c0-18.815-15.252-34.067-34.067-34.067L290.567 86.166c-18.815 0-34.067 15.252-34.067 34.067L256.5 869.7c0 18.815 15.252 34.067 34.067 34.067l442.867 0c18.815 0 34.067-15.252 34.067-34.067L767.501 120.233zM655.642 700.731l-14.751 8.517c-8.147 4.705-18.565 1.913-23.269-6.234l-59.266-102.651c-19.338 8.806-40.754 13.838-63.39 13.838-84.664 0-153.3-68.634-153.3-153.3s68.636-153.3 153.3-153.3c84.666 0 153.3 68.634 153.3 153.3 0 43.588-18.278 82.835-47.482 110.747l61.092 105.816C666.581 685.61 663.789 696.028 655.642 700.731zM494.967 358.7c-56.443 0-102.2 45.757-102.2 102.2s45.757 102.2 102.2 102.2 102.2-45.757 102.2-102.2S551.41 358.7 494.967 358.7z" fill="#CCCCCC" p-id="2956"></path></svg>